<mxfile host="app.diagrams.net" modified="2023-10-05T19:42:47.431Z" agent="Mozilla/5.0 (Windows NT 10.0; Win64; x64) AppleWebKit/537.36 (KHTML, like Gecko) Chrome/117.0.0.0 Safari/537.36" version="22.0.3" etag="CKBi2zG3XojJjXFiSxd5" type="github">
  <diagram name="Page-1" id="wt3GU1BiNuB3bV9aZBw1">
    <mxGraphModel>
      <root>
        <mxCell id="0" />
        <mxCell id="1" parent="0" />
      </root>
    </mxGraphModel>
  </diagram>
</mxfile>
